<?xml version="1.0" standalone="no"?>
<!DOCTYPE svg PUBLIC "-//W3C//DTD SVG 20010904//EN"
 "http://www.w3.org/TR/2001/REC-SVG-20010904/DTD/svg10.dtd">
<svg version="1.0" xmlns="http://www.w3.org/2000/svg"
 width="976.000000pt" height="1024.000000pt" viewBox="0 0 976.000000 1024.000000"
 preserveAspectRatio="xMidYMid meet">

<g transform="translate(0.000000,1024.000000) scale(0.100000,-0.100000)"
fill="#000000" stroke="none">
<path d="M5195 7305 c-385 -421 -718 -785 -740 -809 l-40 -45 -300 263 c-165
145 -303 261 -307 259 -14 -7 -8 -248 7 -336 44 -250 126 -405 355 -671 92
-106 254 -256 277 -256 6 0 339 354 739 787 l728 787 23 -51 c49 -107 66 -198
67 -353 1 -154 -9 -211 -58 -332 -40 -99 -87 -167 -187 -272 -52 -56 -342
-373 -643 -706 -302 -333 -565 -622 -586 -644 l-37 -38 -233 198 c-345 293
-479 423 -617 596 -185 233 -323 519 -383 796 -56 255 -49 574 19 889 l18 83
-203 186 c-111 102 -206 186 -211 186 -20 0 -134 -382 -168 -568 -23 -120 -31
-449 -16 -585 48 -413 209 -826 484 -1238 165 -247 285 -379 572 -632 198
-174 782 -649 799 -649 12 0 947 1085 1296 1504 526 632 609 755 671 992 21
78 24 112 24 269 0 157 -3 191 -24 269 -80 305 -265 586 -537 817 -45 38 -83
69 -85 68 -2 0 -319 -344 -704 -764z"/>
<path d="M1080 500 l0 -270 143 0 c161 0 195 10 234 69 43 64 24 164 -38 196
l-30 16 30 30 c40 40 49 87 25 135 -11 21 -30 46 -44 56 -32 23 -121 38 -232
38 l-88 0 0 -270z m270 185 c54 -28 50 -114 -6 -135 -14 -6 -63 -10 -110 -10
l-84 0 0 80 0 80 85 0 c57 0 96 -5 115 -15z m19 -230 c48 -25 56 -86 17 -132
-23 -27 -28 -28 -130 -31 l-106 -4 0 91 0 91 95 0 c65 0 105 -5 124 -15z"/>
<path d="M2370 730 c0 -38 2 -40 30 -40 28 0 30 2 30 40 0 38 -2 40 -30 40
-28 0 -30 -2 -30 -40z"/>
<path d="M4433 750 c-17 -10 -37 -28 -42 -39 -20 -36 -13 -96 15 -137 25 -36
25 -39 9 -49 -99 -58 -133 -151 -82 -225 40 -59 71 -75 147 -75 61 0 73 4 113
31 l45 32 35 -36 36 -36 26 24 26 25 -23 20 c-62 56 -63 58 -37 119 12 31 21
58 18 60 -2 2 -18 7 -36 10 -29 7 -32 5 -38 -23 -4 -17 -10 -33 -14 -35 -8 -5
-91 97 -91 111 0 5 14 17 30 26 37 22 60 65 60 113 0 28 -8 44 -34 70 -29 29
-41 34 -82 34 -31 0 -61 -7 -81 -20z m112 -50 c27 -30 22 -70 -14 -102 l-32
-28 -23 27 c-36 43 -39 66 -15 96 24 32 59 35 84 7z m-14 -283 c31 -39 54 -77
52 -84 -15 -39 -110 -66 -154 -43 -24 13 -49 61 -49 96 0 25 66 105 86 104 5
-1 34 -33 65 -73z"/>
<path d="M5181 756 c-51 -18 -106 -70 -132 -123 -33 -67 -33 -194 0 -270 27
-61 82 -115 136 -133 49 -16 150 -9 199 15 63 30 127 135 95 156 -31 19 -54 9
-74 -33 -39 -82 -124 -110 -209 -69 -73 36 -91 75 -91 196 0 117 16 156 81
192 78 45 172 22 215 -52 18 -30 25 -34 47 -29 35 9 35 9 28 38 -9 37 -56 87
-101 107 -46 21 -142 24 -194 5z"/>
<path d="M7910 674 l0 -96 -36 22 c-66 42 -143 25 -197 -42 -27 -33 -31 -47
-35 -117 -4 -68 -1 -86 18 -125 43 -91 162 -125 226 -65 l24 22 0 -21 c0 -18
6 -22 30 -22 l30 0 0 270 0 270 -30 0 -30 0 0 -96z m-51 -120 c54 -38 70 -172
29 -234 -44 -65 -122 -60 -162 10 -24 41 -28 128 -7 178 23 56 93 79 140 46z"/>
<path d="M8080 730 c0 -38 2 -40 30 -40 28 0 30 2 30 40 0 38 -2 40 -30 40
-28 0 -30 -2 -30 -40z"/>
<path d="M8283 729 c-29 -19 -33 -26 -33 -65 0 -37 -3 -44 -20 -44 -16 0 -20
-7 -20 -30 0 -23 5 -30 19 -30 17 0 19 -11 23 -145 4 -122 7 -147 22 -164 21
-23 74 -36 104 -27 32 11 14 59 -24 66 l-29 5 -3 132 -3 132 33 3 c28 2 33 7
33 28 0 21 -5 26 -32 28 l-32 3 -3 64 -3 64 -32 -20z"/>
<path d="M2070 618 c-55 -15 -90 -54 -90 -101 0 -71 22 -90 142 -122 37 -10
75 -26 85 -37 16 -17 16 -22 3 -46 -31 -53 -140 -47 -168 11 -10 20 -20 27
-43 27 -35 0 -38 -20 -9 -68 25 -40 73 -62 137 -62 110 1 179 69 154 152 -14
44 -33 56 -141 88 -84 25 -100 34 -100 61 0 26 39 49 83 49 30 0 45 -7 67 -30
32 -34 80 -42 80 -12 0 64 -112 115 -200 90z"/>
<path d="M2681 619 c-18 -4 -46 -17 -62 -28 l-29 -22 0 26 c0 21 -5 25 -30 25
l-30 0 0 -195 0 -195 35 0 35 0 0 130 c0 73 5 140 11 153 24 53 116 70 150 28
17 -20 19 -41 19 -167 l0 -144 35 0 35 0 0 145 c0 158 -10 204 -51 226 -36 19
-81 26 -118 18z"/>
<path d="M3062 618 c-55 -12 -107 -63 -123 -120 -15 -55 -6 -157 16 -195 29
-49 80 -77 149 -81 72 -4 118 17 154 68 31 46 29 60 -11 60 -26 0 -36 -6 -45
-26 -15 -31 -74 -57 -112 -49 -36 8 -78 53 -86 93 l-6 32 140 0 c84 0 143 4
147 10 4 6 1 35 -5 65 -23 110 -109 166 -218 143z m120 -75 c10 -10 22 -33 27
-51 l10 -32 -110 0 c-60 0 -109 2 -109 4 0 24 29 72 54 87 37 24 99 20 128 -8z"/>
<path d="M3453 620 c-74 -17 -114 -72 -97 -133 12 -41 57 -70 141 -91 81 -21
93 -29 93 -67 0 -35 -29 -52 -88 -52 -44 0 -92 31 -92 60 0 14 -55 19 -64 5
-10 -16 29 -77 63 -99 25 -17 48 -23 88 -23 100 0 163 47 163 122 0 57 -36 90
-125 113 -84 22 -115 39 -115 65 0 47 101 69 140 30 11 -11 20 -24 20 -30 0
-12 57 -14 64 -2 2 4 -2 22 -10 40 -20 48 -110 79 -181 62z"/>
<path d="M3818 618 c-97 -25 -119 -152 -34 -192 17 -8 64 -24 103 -35 61 -18
74 -26 79 -47 10 -39 -24 -67 -78 -67 -53 0 -86 16 -98 49 -7 18 -17 24 -40
24 -37 0 -39 -18 -8 -67 39 -65 144 -83 228 -40 36 17 48 30 59 63 28 81 -10
122 -153 159 -53 14 -70 24 -79 43 -10 21 -8 27 12 43 37 30 97 25 131 -11 32
-34 80 -42 80 -12 0 65 -111 114 -202 90z"/>
<path d="M5694 620 c-81 -18 -131 -80 -141 -173 -10 -100 38 -193 114 -218 85
-28 193 13 228 87 21 44 24 142 6 196 -14 42 -69 95 -106 103 -55 11 -71 12
-101 5z m105 -76 c75 -63 60 -225 -25 -260 -83 -35 -154 30 -154 142 0 119
100 185 179 118z"/>
<path d="M6127 616 c-21 -8 -47 -22 -58 -32 -18 -16 -19 -16 -19 9 0 23 -4 27
-30 27 l-30 0 0 -195 0 -195 35 0 35 0 0 125 c0 151 11 187 63 204 39 13 81 2
91 -24 3 -9 6 -82 6 -161 l0 -144 35 0 35 0 0 130 c0 149 10 181 61 199 44 15
56 14 79 -9 18 -18 20 -33 20 -170 l0 -150 35 0 35 0 0 149 c0 161 -8 201 -47
226 -48 32 -163 12 -180 -31 -4 -11 -13 -8 -39 16 -19 16 -41 30 -49 30 -7 0
-19 2 -27 5 -7 2 -30 -2 -51 -9z"/>
<path d="M6762 619 c-18 -4 -44 -17 -57 -29 l-23 -22 -4 24 c-2 17 -10 24 -30
26 l-28 3 0 -195 0 -196 29 0 28 0 5 135 c4 103 9 141 22 160 34 52 108 54
133 4 8 -15 13 -72 13 -161 l0 -138 30 0 30 0 0 108 c1 168 18 212 87 227 27
5 37 2 58 -19 24 -25 25 -28 25 -171 l0 -145 30 0 30 0 0 164 c0 149 -2 166
-20 189 -41 52 -138 54 -189 3 l-25 -26 -21 26 c-23 29 -76 43 -123 33z"/>
<path d="M7356 618 c-95 -21 -142 -97 -134 -217 6 -86 32 -132 92 -160 80 -39
166 -23 223 42 37 42 47 84 41 166 -9 124 -103 196 -222 169z m88 -58 c14 -5
35 -24 46 -42 27 -45 28 -150 1 -194 -40 -66 -142 -66 -182 0 -27 44 -26 149
1 194 29 48 79 63 134 42z"/>
<path d="M1571 478 c0 -83 5 -158 12 -178 28 -82 152 -107 217 -45 l30 29 0
-27 c0 -23 4 -27 30 -27 l30 0 0 195 0 195 -34 0 -35 0 -3 -146 c-3 -146 -3
-146 -31 -170 -19 -16 -40 -24 -65 -24 -73 0 -82 23 -82 199 l0 141 -35 0 -35
0 1 -142z"/>
<path d="M2370 425 l0 -195 30 0 30 0 0 195 0 195 -30 0 -30 0 0 -195z"/>
<path d="M8080 425 l0 -195 30 0 30 0 0 195 0 195 -30 0 -30 0 0 -195z"/>
<path d="M8420 613 c0 -4 32 -94 71 -199 l72 -192 -19 -38 c-17 -35 -23 -39
-61 -42 -46 -3 -48 -7 -33 -46 17 -46 94 -30 128 26 16 26 192 479 192 494 0
2 -15 4 -33 4 l-32 0 -56 -156 -56 -156 -31 93 c-66 197 -75 214 -110 217 -18
2 -32 0 -32 -5z"/>
</g>
</svg>
